<svg id="svg" fill="#000000" stroke="#000000" width="37" height="37" version="1.1" viewBox="144 144 512 512" xmlns="http://www.w3.org/2000/svg">
    <g id="IconSvg_bgCarrier" stroke-width="0"></g>
    <g id="IconSvg_tracerCarrier" stroke-linecap="round" stroke-linejoin="round" stroke="#CCCCCC" stroke-width="0">
      <g xmlns="http://www.w3.org/2000/svg">
  <path d="m636.79 450.88c-3.0234-4.0312-7.5586-7.0547-12.594-7.0547h-57.438c-4.5352-20.152-19.145-37.281-38.793-44.84-9.0703-24.688-33.25-42.32-60.457-42.32-7.5586 0-15.113 1.5117-22.672 4.0312-12.09-12.09-28.215-18.641-45.344-18.641-14.609 0-28.215 5.0391-39.801 13.602-7.5586-3.0234-15.617-4.5352-23.68-4.5352-29.223 0-53.906 19.145-61.969 46.352-21.16 7.0547-36.777 24.688-41.816 45.848h-56.422c-5.0391 0-10.078 2.5195-12.594 7.0547-3.0273 5.0391-3.5312 10.078-1.5156 15.113 15.113 36.777 45.848 64.488 83.633 76.074l50.383 15.113v49.879c0 8.5664 7.0547 15.113 15.113 15.113h177.34c8.5664 0 15.113-7.0547 15.113-15.113v-49.879l50.383-15.113c38.289-11.586 68.52-39.297 83.633-76.074 3.0234-5.0352 2.5195-10.074-0.50391-14.609zm-346.62-25.191c7.0547-1.0078 12.09-6.5508 13.098-13.602 2.0156-17.129 16.121-30.23 33.25-30.23 6.5508 0 12.594 2.0156 18.137 5.543 6.5508 4.0312 15.113 3.0234 20.152-3.0234 6.5508-7.5586 15.617-11.586 25.191-11.586 11.586 0 22.168 6.0469 28.215 15.617 2.0156 3.5273 5.543 6.0469 9.5742 6.5508 4.0312 1.0078 8.0625 0 11.586-2.0156 5.543-3.5273 11.586-5.543 18.137-5.543 15.617 0 29.727 11.082 32.746 26.703 1.0078 6.0469 5.543 10.578 11.586 11.586 10.078 2.5195 17.633 9.0703 22.168 17.633h-268.53c5.0391-8.5625 13.605-15.617 24.688-17.633zm36.273 165.75v-30.73h146.61v30.73zm219.16-79.098-58.945 18.137h-173.31l-58.945-18.137c-21.16-6.5508-39.801-19.648-52.395-37.281h396c-13.102 17.633-31.242 30.73-52.402 37.281z"></path>
  <path d="m318.89 311.33c4.0312 5.543 13.098 1.0078 11.082-5.543-3.5273-11.586-2.5195-23.68 3.0234-34.258l11.082-20.656c7.5586-14.105 6.5508-31.738-2.0156-45.344l-16.121-24.184c-3.5273-5.543-12.594-2.0156-11.586 4.5352l4.0312 22.168c2.5195 12.594-1.0078 25.695-9.0703 35.77-12.594 15.617-13.098 38.289-1.0078 54.41z"></path>
  <path d="m394.46 311.33c4.0312 5.543 13.098 1.0078 11.082-5.543-3.5273-11.586-2.5195-23.68 3.0234-34.258l11.082-20.656c7.5586-14.105 6.5508-31.738-2.0156-45.344l-16.121-24.184c-3.5273-5.543-12.594-2.0156-11.586 4.5352l4.0312 22.168c2.5195 12.594-1.0078 25.695-9.0703 35.77-12.594 15.617-13.098 38.289-1.0078 54.41z"></path>
  <path d="m470.03 311.33c4.0312 5.543 13.098 1.0078 11.082-5.543-3.5273-11.586-2.5195-23.68 3.0234-34.258l11.082-20.656c7.5586-14.105 6.5508-31.738-2.0156-45.344l-16.121-24.184c-3.5273-5.543-12.594-2.0156-11.586 4.5352l4.0312 22.168c2.5195 12.594-1.0078 25.695-9.0703 35.77-12.594 15.617-13.098 38.289-1.0078 54.41z"></path>
 </g>

      </g>
     <g id="IconSvg_iconCarrier">
      <g xmlns="http://www.w3.org/2000/svg">
  <path d="m636.79 450.88c-3.0234-4.0312-7.5586-7.0547-12.594-7.0547h-57.438c-4.5352-20.152-19.145-37.281-38.793-44.84-9.0703-24.688-33.25-42.32-60.457-42.32-7.5586 0-15.113 1.5117-22.672 4.0312-12.09-12.09-28.215-18.641-45.344-18.641-14.609 0-28.215 5.0391-39.801 13.602-7.5586-3.0234-15.617-4.5352-23.68-4.5352-29.223 0-53.906 19.145-61.969 46.352-21.16 7.0547-36.777 24.688-41.816 45.848h-56.422c-5.0391 0-10.078 2.5195-12.594 7.0547-3.0273 5.0391-3.5312 10.078-1.5156 15.113 15.113 36.777 45.848 64.488 83.633 76.074l50.383 15.113v49.879c0 8.5664 7.0547 15.113 15.113 15.113h177.34c8.5664 0 15.113-7.0547 15.113-15.113v-49.879l50.383-15.113c38.289-11.586 68.52-39.297 83.633-76.074 3.0234-5.0352 2.5195-10.074-0.50391-14.609zm-346.62-25.191c7.0547-1.0078 12.09-6.5508 13.098-13.602 2.0156-17.129 16.121-30.23 33.25-30.23 6.5508 0 12.594 2.0156 18.137 5.543 6.5508 4.0312 15.113 3.0234 20.152-3.0234 6.5508-7.5586 15.617-11.586 25.191-11.586 11.586 0 22.168 6.0469 28.215 15.617 2.0156 3.5273 5.543 6.0469 9.5742 6.5508 4.0312 1.0078 8.0625 0 11.586-2.0156 5.543-3.5273 11.586-5.543 18.137-5.543 15.617 0 29.727 11.082 32.746 26.703 1.0078 6.0469 5.543 10.578 11.586 11.586 10.078 2.5195 17.633 9.0703 22.168 17.633h-268.53c5.0391-8.5625 13.605-15.617 24.688-17.633zm36.273 165.75v-30.73h146.61v30.73zm219.16-79.098-58.945 18.137h-173.31l-58.945-18.137c-21.16-6.5508-39.801-19.648-52.395-37.281h396c-13.102 17.633-31.242 30.73-52.402 37.281z"></path>
  <path d="m318.89 311.33c4.0312 5.543 13.098 1.0078 11.082-5.543-3.5273-11.586-2.5195-23.68 3.0234-34.258l11.082-20.656c7.5586-14.105 6.5508-31.738-2.0156-45.344l-16.121-24.184c-3.5273-5.543-12.594-2.0156-11.586 4.5352l4.0312 22.168c2.5195 12.594-1.0078 25.695-9.0703 35.77-12.594 15.617-13.098 38.289-1.0078 54.41z"></path>
  <path d="m394.46 311.33c4.0312 5.543 13.098 1.0078 11.082-5.543-3.5273-11.586-2.5195-23.68 3.0234-34.258l11.082-20.656c7.5586-14.105 6.5508-31.738-2.0156-45.344l-16.121-24.184c-3.5273-5.543-12.594-2.0156-11.586 4.5352l4.0312 22.168c2.5195 12.594-1.0078 25.695-9.0703 35.77-12.594 15.617-13.098 38.289-1.0078 54.41z"></path>
  <path d="m470.03 311.33c4.0312 5.543 13.098 1.0078 11.082-5.543-3.5273-11.586-2.5195-23.68 3.0234-34.258l11.082-20.656c7.5586-14.105 6.5508-31.738-2.0156-45.344l-16.121-24.184c-3.5273-5.543-12.594-2.0156-11.586 4.5352l4.0312 22.168c2.5195 12.594-1.0078 25.695-9.0703 35.77-12.594 15.617-13.098 38.289-1.0078 54.41z"></path>
 </g>

      </g>
      </svg>