<svg width="151" height="35" viewBox="0 0 151 35" fill="none" xmlns="http://www.w3.org/2000/svg">
<path d="M43.068 10.976V16.772H49.956C50.348 16.772 50.6653 16.8933 50.908 17.136C51.1693 17.3787 51.3 17.696 51.3 18.088C51.3 18.424 51.1693 18.7133 50.908 18.956C50.6653 19.1987 50.348 19.32 49.956 19.32H43.068V26.656C43.068 27.0293 42.928 27.3467 42.648 27.608C42.3867 27.8693 42.0693 28 41.696 28C41.304 28 40.9773 27.8693 40.716 27.608C40.4547 27.3467 40.324 27.0293 40.324 26.656V9.744C40.324 9.37067 40.4547 9.05333 40.716 8.792C40.9773 8.53067 41.2947 8.4 41.668 8.4H51.216C51.608 8.4 51.9253 8.52133 52.168 8.764C52.4293 9.00667 52.56 9.324 52.56 9.716C52.56 10.052 52.4293 10.3507 52.168 10.612C51.9067 10.8547 51.5893 10.976 51.216 10.976H43.068ZM69.2705 20.664C69.2705 22.12 68.9439 23.4267 68.2905 24.584C67.6372 25.7413 66.7412 26.6467 65.6025 27.3C64.4825 27.9533 63.2412 28.28 61.8785 28.28C60.5159 28.28 59.2652 27.9533 58.1265 27.3C57.0065 26.6467 56.1199 25.7413 55.4665 24.584C54.8132 23.4267 54.4865 22.12 54.4865 20.664C54.4865 19.208 54.8132 17.892 55.4665 16.716C56.1199 15.54 57.0065 14.6253 58.1265 13.972C59.2652 13.3187 60.5159 12.992 61.8785 12.992C63.2412 12.992 64.4825 13.3187 65.6025 13.972C66.7412 14.6253 67.6372 15.54 68.2905 16.716C68.9439 17.892 69.2705 19.208 69.2705 20.664ZM66.6105 20.664C66.6105 19.656 66.3959 18.76 65.9665 17.976C65.5559 17.1733 64.9865 16.5573 64.2585 16.128C63.5492 15.68 62.7559 15.456 61.8785 15.456C61.0012 15.456 60.1985 15.68 59.4705 16.128C58.7612 16.5573 58.1919 17.1733 57.7625 17.976C57.3519 18.76 57.1465 19.656 57.1465 20.664C57.1465 21.6533 57.3519 22.54 57.7625 23.324C58.1919 24.108 58.7612 24.724 59.4705 25.172C60.1985 25.6013 61.0012 25.816 61.8785 25.816C62.7559 25.816 63.5492 25.6013 64.2585 25.172C64.9865 24.724 65.5559 24.108 65.9665 23.324C66.3959 22.54 66.6105 21.6533 66.6105 20.664ZM86.251 20.664C86.251 22.12 85.9243 23.4267 85.271 24.584C84.6177 25.7413 83.7217 26.6467 82.583 27.3C81.463 27.9533 80.2217 28.28 78.859 28.28C77.4963 28.28 76.2457 27.9533 75.107 27.3C73.987 26.6467 73.1003 25.7413 72.447 24.584C71.7937 23.4267 71.467 22.12 71.467 20.664C71.467 19.208 71.7937 17.892 72.447 16.716C73.1003 15.54 73.987 14.6253 75.107 13.972C76.2457 13.3187 77.4963 12.992 78.859 12.992C80.2217 12.992 81.463 13.3187 82.583 13.972C83.7217 14.6253 84.6177 15.54 85.271 16.716C85.9243 17.892 86.251 19.208 86.251 20.664ZM83.591 20.664C83.591 19.656 83.3763 18.76 82.947 17.976C82.5363 17.1733 81.967 16.5573 81.239 16.128C80.5297 15.68 79.7363 15.456 78.859 15.456C77.9817 15.456 77.179 15.68 76.451 16.128C75.7417 16.5573 75.1723 17.1733 74.743 17.976C74.3323 18.76 74.127 19.656 74.127 20.664C74.127 21.6533 74.3323 22.54 74.743 23.324C75.1723 24.108 75.7417 24.724 76.451 25.172C77.179 25.6013 77.9817 25.816 78.859 25.816C79.7363 25.816 80.5297 25.6013 81.239 25.172C81.967 24.724 82.5363 24.108 82.947 23.324C83.3763 22.54 83.591 21.6533 83.591 20.664ZM101.243 7.28C101.635 7.28 101.953 7.41067 102.195 7.672C102.457 7.91467 102.587 8.232 102.587 8.624V26.656C102.587 27.0293 102.457 27.3467 102.195 27.608C101.953 27.8693 101.635 28 101.243 28C100.851 28 100.534 27.8787 100.291 27.636C100.049 27.3747 99.9275 27.048 99.9275 26.656V25.872C99.4608 26.544 98.7981 27.1133 97.9395 27.58C97.0995 28.0467 96.1941 28.28 95.2235 28.28C93.9541 28.28 92.8061 27.9533 91.7795 27.3C90.7528 26.6467 89.9408 25.7413 89.3435 24.584C88.7461 23.408 88.4475 22.092 88.4475 20.636C88.4475 19.18 88.7368 17.8733 89.3155 16.716C89.9128 15.54 90.7248 14.6253 91.7515 13.972C92.7781 13.3187 93.9075 12.992 95.1395 12.992C96.1288 12.992 97.0435 13.1973 97.8835 13.608C98.7235 14.0187 99.4048 14.5507 99.9275 15.204V8.624C99.9275 8.232 100.049 7.91467 100.291 7.672C100.534 7.41067 100.851 7.28 101.243 7.28ZM95.5315 25.816C96.4088 25.816 97.1835 25.592 97.8555 25.144C98.5461 24.696 99.0781 24.08 99.4515 23.296C99.8435 22.512 100.039 21.6253 100.039 20.636C100.039 19.6653 99.8435 18.788 99.4515 18.004C99.0781 17.2013 98.5461 16.576 97.8555 16.128C97.1835 15.68 96.4088 15.456 95.5315 15.456C94.6541 15.456 93.8701 15.68 93.1795 16.128C92.5075 16.576 91.9755 17.2013 91.5835 18.004C91.2101 18.788 91.0235 19.6653 91.0235 20.636C91.0235 21.6253 91.2101 22.512 91.5835 23.296C91.9755 24.08 92.5075 24.696 93.1795 25.144C93.8701 25.592 94.6541 25.816 95.5315 25.816ZM117.463 13.188C117.855 13.188 118.172 13.3187 118.415 13.58C118.676 13.8413 118.807 14.1587 118.807 14.532V26.628C118.807 28.9613 118.163 30.7067 116.875 31.864C115.587 33.0213 113.888 33.6 111.779 33.6C111.088 33.6 110.407 33.5347 109.735 33.404C109.063 33.2733 108.512 33.096 108.083 32.872C107.392 32.5547 107.047 32.1253 107.047 31.584C107.047 31.4907 107.065 31.3693 107.103 31.22C107.215 30.9027 107.373 30.66 107.579 30.492C107.784 30.324 108.017 30.24 108.279 30.24C108.428 30.24 108.568 30.268 108.699 30.324C109.277 30.5853 109.791 30.7907 110.239 30.94C110.687 31.0893 111.209 31.164 111.807 31.164C114.7 31.164 116.147 29.68 116.147 26.712V26.152C115.643 26.824 114.989 27.3467 114.187 27.72C113.403 28.0933 112.497 28.28 111.471 28.28C109.921 28.28 108.708 27.7853 107.831 26.796C106.972 25.8067 106.543 24.5093 106.543 22.904V14.532C106.543 14.14 106.664 13.8227 106.907 13.58C107.149 13.3187 107.467 13.188 107.859 13.188C108.251 13.188 108.568 13.3187 108.811 13.58C109.072 13.8413 109.203 14.1587 109.203 14.532V22.204C109.203 23.436 109.473 24.3507 110.015 24.948C110.556 25.5267 111.377 25.816 112.479 25.816C113.543 25.816 114.42 25.48 115.111 24.808C115.801 24.136 116.147 23.268 116.147 22.204V14.532C116.147 14.14 116.268 13.8227 116.511 13.58C116.753 13.3187 117.071 13.188 117.463 13.188ZM135.779 13.132C136.171 13.132 136.488 13.2627 136.731 13.524C136.992 13.7667 137.123 14.0933 137.123 14.504V26.656C137.123 27.0293 136.992 27.3467 136.731 27.608C136.488 27.8693 136.171 28 135.779 28C135.387 28 135.069 27.8787 134.827 27.636C134.584 27.3747 134.463 27.048 134.463 26.656V25.928C133.977 26.5813 133.315 27.1413 132.475 27.608C131.635 28.056 130.729 28.28 129.759 28.28C128.489 28.28 127.332 27.9533 126.287 27.3C125.26 26.6467 124.448 25.7413 123.851 24.584C123.272 23.408 122.983 22.092 122.983 20.636C122.983 19.18 123.272 17.8733 123.851 16.716C124.448 15.54 125.26 14.6253 126.287 13.972C127.313 13.3187 128.443 12.992 129.675 12.992C130.664 12.992 131.579 13.1973 132.419 13.608C133.277 14.0187 133.959 14.5413 134.463 15.176V14.504C134.463 14.112 134.584 13.7853 134.827 13.524C135.069 13.2627 135.387 13.132 135.779 13.132ZM130.067 25.816C130.944 25.816 131.719 25.592 132.391 25.144C133.081 24.696 133.613 24.08 133.987 23.296C134.379 22.512 134.575 21.6253 134.575 20.636C134.575 19.6653 134.379 18.788 133.987 18.004C133.613 17.22 133.081 16.604 132.391 16.156C131.719 15.6893 130.944 15.456 130.067 15.456C129.189 15.456 128.405 15.68 127.715 16.128C127.043 16.576 126.511 17.192 126.119 17.976C125.745 18.76 125.559 19.6467 125.559 20.636C125.559 21.6253 125.745 22.512 126.119 23.296C126.511 24.08 127.043 24.696 127.715 25.144C128.405 25.592 129.189 25.816 130.067 25.816ZM148.386 12.992C148.871 12.992 149.291 13.1227 149.646 13.384C150.001 13.6267 150.178 13.9347 150.178 14.308C150.178 14.756 150.057 15.1013 149.814 15.344C149.59 15.568 149.31 15.68 148.974 15.68C148.806 15.68 148.554 15.624 148.218 15.512C147.826 15.3813 147.518 15.316 147.294 15.316C146.715 15.316 146.146 15.5213 145.586 15.932C145.045 16.324 144.597 16.8747 144.242 17.584C143.906 18.2747 143.738 19.0493 143.738 19.908V26.656C143.738 27.0293 143.607 27.3467 143.346 27.608C143.103 27.8693 142.786 28 142.394 28C142.002 28 141.685 27.8787 141.442 27.636C141.199 27.3747 141.078 27.048 141.078 26.656V14.672C141.078 14.2987 141.199 13.9813 141.442 13.72C141.703 13.4587 142.021 13.328 142.394 13.328C142.786 13.328 143.103 13.4587 143.346 13.72C143.607 13.9813 143.738 14.2987 143.738 14.672V16.1C144.149 15.1853 144.765 14.448 145.586 13.888C146.407 13.3093 147.341 13.0107 148.386 12.992Z" fill="#272042"/>
<path d="M0 30.96H28V2.96H0V30.96Z" fill="#272042"/>
</svg>
